<svg width="30" height="31" viewBox="0 0 30 31" fill="none" xmlns="http://www.w3.org/2000/svg">
    <path
        d="M8.96582 6H20.9863C21.2273 6.00001 21.4536 6.04805 21.6689 6.14355C21.8708 6.23315 22.0324 6.36284 22.1611 6.53613L22.1768 6.55566L24.1484 8.94336L24.1553 8.95117C24.2415 9.05119 24.3102 9.15911 24.3633 9.27539L24.4111 9.39551C24.4696 9.56322 24.5 9.74141 24.5 9.93164V12.3838C24.4185 12.3956 24.3384 12.408 24.2598 12.4229C24.2566 12.4235 24.2532 12.4242 24.25 12.4248V9.75879H18.25V17.373L17.8789 17.7432L15.2227 16.4219L14.999 16.3115L14.7764 16.4229L11.75 17.9355V9.75977H5.75V23.4814C5.75004 23.8236 5.86464 24.14 6.1123 24.3877C6.36027 24.6357 6.67718 24.7499 7.01953 24.75H14.3076V25H7.01953C6.59135 24.9999 6.24211 24.8554 5.94336 24.5566C5.64439 24.2577 5.50004 23.9087 5.5 23.4814V9.85742L5.50586 9.71875C5.51694 9.5834 5.54446 9.45766 5.58691 9.33984C5.6428 9.18482 5.72695 9.03901 5.84473 8.90234L5.85059 8.89648L7.79785 6.55859L7.80664 6.54785L7.81543 6.53613C7.94684 6.35873 8.10741 6.22901 8.30078 6.14062C8.50429 6.0477 8.72409 6.00006 8.96582 6ZM25.2383 16.2891C25.3093 16.2891 25.3887 16.3015 25.4775 16.335V16.3359C25.553 16.3648 25.6172 16.4068 25.6738 16.4639V16.4629L26.8086 17.6221C26.8767 17.706 26.9236 17.786 26.9541 17.8623L26.9561 17.8652C26.9875 17.9421 27 18.0114 27 18.0752C27 18.1435 26.9874 18.2185 26.9561 18.3018C26.9299 18.3711 26.8848 18.4459 26.8145 18.5273L20.3428 25H18.2871V22.9453L24.8076 16.458L24.8086 16.457C24.8899 16.3758 24.9528 16.3426 24.9941 16.3291L24.9932 16.3281C25.0789 16.3003 25.1603 16.2891 25.2383 16.2891ZM22.9062 18.4951L18.542 22.8535L18.3945 23V24.8945H20.29L20.4365 24.748L24.7705 20.4053L25.1211 20.0537L24.7715 19.7012L23.6201 18.502L23.2725 18.1289L22.9062 18.4951ZM12 17.5117L12.7236 17.1494L15 16.0107L17.2764 17.1494L18 17.5117V9.75977H12V17.5117ZM8.99023 6.25C8.80389 6.25 8.62421 6.29079 8.45605 6.36816C8.29767 6.44107 8.15547 6.54024 8.0332 6.66504L8.01855 6.67969L8.00586 6.69434L6.34082 8.68945L5.65625 9.50977H24.3174L23.6338 8.68945L21.9717 6.69531L21.9561 6.67676L21.9395 6.65918L21.8438 6.57324C21.7455 6.49157 21.6374 6.42339 21.5205 6.36914C21.3519 6.29092 21.172 6.25005 20.9854 6.25H8.99023Z"
        fill="#4E71FF" stroke="#4E71FF" />
</svg>