<svg width="30" height="31" viewBox="0 0 30 31" fill="none" xmlns="http://www.w3.org/2000/svg">
    <path
        d="M19.4721 4.72746L21.9721 6.0394C24.6617 7.45083 26.0065 8.15654 26.7533 9.42468C27.5 10.6928 27.5 12.2708 27.5 15.4269V15.5731C27.5 18.7292 27.5 20.3072 26.7533 21.5753C26.0065 22.8435 24.6617 23.5492 21.9721 24.9606L19.4721 26.2725C17.2776 27.4242 16.1803 28 15 28C13.8197 28 12.7224 27.4242 10.5279 26.2725L8.02787 24.9606C5.33828 23.5492 3.99349 22.8435 3.24675 21.5753C2.5 20.3072 2.5 18.7292 2.5 15.5731V15.4269C2.5 12.2708 2.5 10.6928 3.24675 9.42468C3.99349 8.15654 5.33828 7.45083 8.02787 6.0394L10.5279 4.72746C12.7224 3.57582 13.8197 3 15 3C16.1803 3 17.2776 3.57582 19.4721 4.72746Z"
        stroke="#4E71FF" stroke-width="1.5" stroke-linecap="round" />
    <path
        d="M26.25 9.875L21.25 12.375M15 15.5L3.75 9.875M15 15.5V27.375M15 15.5C15 15.5 18.4283 13.7858 20.625 12.6875C20.8691 12.5655 21.25 12.375 21.25 12.375M21.25 12.375V16.75M21.25 12.375L9.375 6.125"
        stroke="#4E71FF" stroke-width="1.5" stroke-linecap="round" />
</svg>