<svg width="30" height="31" viewBox="0 0 30 31" fill="none" xmlns="http://www.w3.org/2000/svg">
    <path
        d="M9.375 23C10.4105 23 11.25 23.8395 11.25 24.875C11.25 25.9105 10.4105 26.75 9.375 26.75C8.33947 26.75 7.5 25.9105 7.5 24.875C7.5 23.8395 8.33947 23 9.375 23Z"
        stroke="#4E71FF" stroke-width="1.5" />
    <path
        d="M20.625 23.0001C21.6605 23.0001 22.5 23.8396 22.5 24.8751C22.5 25.9106 21.6605 26.7501 20.625 26.7501C19.5895 26.7501 18.75 25.9106 18.75 24.8751C18.75 23.8396 19.5895 23.0001 20.625 23.0001Z"
        stroke="#4E71FF" stroke-width="1.5" />
    <path d="M13.75 14L15.1786 15.5L18.75 11.75" stroke="#4E71FF" stroke-width="1.5"
        stroke-linecap="round" stroke-linejoin="round" />
    <path
        d="M2.5 4.25L2.82651 4.36479C4.4535 4.93681 5.267 5.22282 5.7323 5.90373C6.1976 6.58463 6.1976 7.48907 6.1976 9.29795V12.7C6.1976 16.377 6.27664 17.5904 7.35965 18.7327C8.44265 19.875 10.1857 19.875 13.6718 19.875H15M20.3005 19.875C22.2517 19.875 23.2274 19.875 23.917 19.313C24.6067 18.751 24.8036 17.7954 25.1975 15.8843L25.8222 12.8534C26.2561 10.6796 26.4731 9.59271 25.9181 8.87135C25.3632 8.15 23.4672 8.15 21.361 8.15H13.7793M6.1976 8.15H8.75"
        stroke="#4E71FF" stroke-width="1.5" stroke-linecap="round" />
</svg>