<svg width="30" height="31" viewBox="0 0 30 31" fill="none" xmlns="http://www.w3.org/2000/svg">
    <path
        d="M21.25 13C23.3211 13 25 11.3211 25 9.25C25 7.17893 23.3211 5.5 21.25 5.5C19.1789 5.5 17.5 7.17893 17.5 9.25C17.5 11.3211 19.1789 13 21.25 13Z"
        stroke="#4E71FF" stroke-width="1.5" stroke-linecap="round" stroke-linejoin="round" />
    <path
        d="M8.75 25.5C10.8211 25.5 12.5 23.8211 12.5 21.75C12.5 19.6789 10.8211 18 8.75 18C6.67893 18 5 19.6789 5 21.75C5 23.8211 6.67893 25.5 8.75 25.5Z"
        stroke="#4E71FF" stroke-width="1.5" stroke-linecap="round" stroke-linejoin="round" />
    <path
        d="M17.5 18H25V24.25C25 24.5815 24.8683 24.8995 24.6339 25.1339C24.3995 25.3683 24.0815 25.5 23.75 25.5H18.75C18.4185 25.5 18.1005 25.3683 17.8661 25.1339C17.6317 24.8995 17.5 24.5815 17.5 24.25V18ZM5 5.5H12.5V11.75C12.5 12.0815 12.3683 12.3995 12.1339 12.6339C11.8995 12.8683 11.5815 13 11.25 13H6.25C5.91848 13 5.60054 12.8683 5.36612 12.6339C5.1317 12.3995 5 12.0815 5 11.75V5.5Z"
        stroke="#4E71FF" stroke-width="1.5" stroke-linecap="round" stroke-linejoin="round" />
</svg>