<svg width="30" height="31" viewBox="0 0 30 31" fill="none" xmlns="http://www.w3.org/2000/svg">
    <path
        d="M14.0625 10.3093C12.8926 10.6292 12.1875 11.5269 12.1875 12.375C12.1875 13.2231 12.8926 14.1208 14.0625 14.4407V10.3093Z"
        fill="#4E71FF" />
    <path
        d="M15.9375 16.5593V20.6907C17.1074 20.3708 17.8125 19.4731 17.8125 18.625C17.8125 17.7769 17.1074 16.8792 15.9375 16.5593Z"
        fill="#4E71FF" />
    <path fill-rule="evenodd" clip-rule="evenodd"
        d="M27.5 15.5C27.5 22.4036 21.9036 28 15 28C8.09644 28 2.5 22.4036 2.5 15.5C2.5 8.59644 8.09644 3 15 3C21.9036 3 27.5 8.59644 27.5 15.5ZM15 7.0625C15.5178 7.0625 15.9375 7.48223 15.9375 8V8.39592C17.9755 8.76084 19.6875 10.292 19.6875 12.375C19.6875 12.8928 19.2678 13.3125 18.75 13.3125C18.2322 13.3125 17.8125 12.8928 17.8125 12.375C17.8125 11.5269 17.1074 10.6292 15.9375 10.3093V14.6459C17.9755 15.0108 19.6875 16.542 19.6875 18.625C19.6875 20.708 17.9755 22.2392 15.9375 22.6041V23C15.9375 23.5178 15.5178 23.9375 15 23.9375C14.4822 23.9375 14.0625 23.5178 14.0625 23V22.6041C12.0245 22.2392 10.3125 20.708 10.3125 18.625C10.3125 18.1072 10.7322 17.6875 11.25 17.6875C11.7678 17.6875 12.1875 18.1072 12.1875 18.625C12.1875 19.4731 12.8926 20.3708 14.0625 20.6907V16.3541C12.0245 15.9892 10.3125 14.458 10.3125 12.375C10.3125 10.292 12.0245 8.76084 14.0625 8.39592V8C14.0625 7.48223 14.4822 7.0625 15 7.0625Z"
        fill="#4E71FF" />
</svg>