<svg width="30" height="31" viewBox="0 0 30 31" fill="none" xmlns="http://www.w3.org/2000/svg">
    <path
        d="M15 8.59375C16.1106 8.59375 17.1756 9.035 17.9609 9.82031C18.7462 10.6056 19.1875 11.6707 19.1875 12.7812C19.1875 13.8918 18.7462 14.9569 17.9609 15.7422C17.1756 16.5275 16.1106 16.9688 15 16.9688C13.8894 16.9688 12.8244 16.5275 12.0391 15.7422C11.2538 14.9569 10.8125 13.8918 10.8125 12.7812L10.8174 12.5732C10.8688 11.5384 11.3029 10.5565 12.0391 9.82031C12.8244 9.035 13.8894 8.59375 15 8.59375Z"
        fill="#4E71FF" stroke="#4E71FF" />
    <path
        d="M3.75 4.75H26.25C27.112 4.75 27.9384 5.09266 28.5479 5.70215C29.1573 6.31164 29.5 7.13805 29.5 8V23C29.5 23.862 29.1573 24.6884 28.5479 25.2979C27.9384 25.9073 27.112 26.25 26.25 26.25H3.75C2.88805 26.25 2.06164 25.9073 1.45215 25.2979C0.842656 24.6884 0.5 23.862 0.5 23V8C0.5 7.13805 0.842655 6.31164 1.45215 5.70215C2.06164 5.09266 2.88805 4.75 3.75 4.75ZM3.75 5.625C3.12011 5.625 2.51571 5.87491 2.07031 6.32031C1.62491 6.76571 1.375 7.37011 1.375 8V23C1.375 23.6299 1.62491 24.2343 2.07031 24.6797C2.51571 25.1251 3.12011 25.375 3.75 25.375H6.35645L6.47461 25.043C6.87352 23.9246 7.64919 22.604 8.99121 21.5645C10.3273 20.5296 12.254 19.75 15 19.75C17.7471 19.75 19.674 20.5295 21.0098 21.5645C22.3515 22.604 23.1264 23.9245 23.5254 25.043L23.6436 25.375H26.25C26.8799 25.375 27.4843 25.1251 27.9297 24.6797C28.3751 24.2343 28.625 23.6299 28.625 23V8C28.625 7.37011 28.3751 6.76571 27.9297 6.32031C27.4843 5.87491 26.8799 5.625 26.25 5.625H3.75Z"
        fill="#4E71FF" stroke="#4E71FF" />
</svg>