<svg width="30" height="30" viewBox="0 0 30 30" fill="none" xmlns="http://www.w3.org/2000/svg">
    <path
        d="M8.4375 17.125H14.0625C15.7367 17.125 17.3425 17.7898 18.5264 18.9736C19.7102 20.1575 20.375 21.7633 20.375 23.4375V27.875H19V23.4375C19 22.128 18.4797 20.8723 17.5537 19.9463C16.6277 19.0203 15.372 18.5 14.0625 18.5H8.4375C7.12799 18.5 5.87225 19.0203 4.94629 19.9463C4.02033 20.8723 3.5 22.128 3.5 23.4375V27.875H2.125V23.4375C2.125 21.7633 2.78981 20.1575 3.97363 18.9736C5.15746 17.7898 6.76332 17.125 8.4375 17.125ZM26.9375 13.375V14.75H20.875V13.375H26.9375ZM11.25 2.125C12.9242 2.125 14.53 2.78981 15.7139 3.97363C16.8977 5.15746 17.5625 6.76332 17.5625 8.4375C17.5625 9.68587 17.1925 10.9063 16.499 11.9443C15.8054 12.9823 14.8194 13.7917 13.666 14.2695C12.5126 14.7473 11.243 14.8724 10.0186 14.6289C8.79405 14.3853 7.66895 13.7842 6.78613 12.9014C5.90331 12.0185 5.30216 10.8935 5.05859 9.66895C4.81505 8.44447 4.9402 7.17491 5.41797 6.02148C5.89576 4.86814 6.70516 3.88205 7.74316 3.18848C8.78118 2.49498 10.0016 2.125 11.25 2.125ZM11.25 3.5C9.94049 3.5 8.68475 4.02033 7.75879 4.94629C6.83283 5.87225 6.3125 7.12799 6.3125 8.4375C6.3125 9.41404 6.602 10.3687 7.14453 11.1807C7.68704 11.9926 8.45822 12.6253 9.36035 12.999C10.2624 13.3727 11.2552 13.4707 12.2129 13.2803C13.1707 13.0898 14.0507 12.6192 14.7412 11.9287C15.4317 11.2382 15.9023 10.3582 16.0928 9.40039C16.2832 8.44273 16.1852 7.44994 15.8115 6.54785C15.4378 5.64572 14.8051 4.87454 13.9932 4.33203C13.1812 3.7895 12.2265 3.5 11.25 3.5ZM29.75 8.6875V10.0625H20.875V8.6875H29.75ZM29.75 4V5.375H20.875V4H29.75Z"
        fill="#191919" stroke="#191919" stroke-width="0.5" />
</svg>