<svg width="30" height="31" viewBox="0 0 30 31" fill="none" xmlns="http://www.w3.org/2000/svg">
    <path
        d="M27.5 27.9999H2.5M3.75 27.9999V14.6837C3.75005 14.1542 3.86225 13.6307 4.07921 13.1476C4.29617 12.6646 4.61296 12.233 5.00875 11.8812L12.5087 5.21494C13.1952 4.60483 14.0816 4.26782 15 4.26782C15.9184 4.26782 16.8048 4.60483 17.4913 5.21494L24.9913 11.8812C25.387 12.233 25.7038 12.6646 25.9208 13.1476C26.1377 13.6307 26.2499 14.1542 26.25 14.6837V27.9999M12.5 11.7499H17.5M11.25 19.8749H18.75M11.25 23.6249H18.75"
        stroke="#4E71FF" stroke-width="1.5" stroke-linecap="round" />
    <path
        d="M22.5 28V20.5C22.5 18.1425 22.5 16.965 21.7675 16.2325C21.035 15.5 19.8575 15.5 17.5 15.5H12.5C10.1425 15.5 8.965 15.5 8.2325 16.2325C7.5 16.965 7.5 18.1425 7.5 20.5V28"
        stroke="#4E71FF" stroke-width="1.5" />
</svg>